<?xml version="1.0" encoding="UTF-8" standalone="no"?>
<!DOCTYPE svg PUBLIC "-//W3C//DTD SVG 1.1//EN"
 "http://www.w3.org/Graphics/SVG/1.1/DTD/svg11.dtd">
<!-- Generated by graphviz version 9.0.0 (20230911.1827)
 -->
<!-- Title: G Pages: 1 -->
<svg width="432pt" height="280pt"
 viewBox="0.00 0.00 432.00 280.48" xmlns="http://www.w3.org/2000/svg" xmlns:xlink="http://www.w3.org/1999/xlink">
<g id="graph0" class="graph" transform="scale(0.471735 0.471735) rotate(0) translate(4 590.58)">
<title>G</title>
<polygon fill="white" stroke="none" points="-4,4 -4,-590.58 911.77,-590.58 911.77,4 -4,4"/>
<g id="clust1" class="cluster">
<title>cluster_0</title>
<polygon fill="#000000" fill-opacity="0.058824" stroke="#000000" stroke-opacity="0.058824" points="202,-489.1 202,-577.35 280,-577.35 280,-489.1 202,-489.1"/>
<text text-anchor="middle" x="241" y="-560.05" font-family="Times,serif" font-size="14.00">app</text>
</g>
<!-- u0 -->
<g id="node1" class="node">
<title>u0</title>
<ellipse fill="#bbffbb" stroke="black" stroke-width="0" cx="463" cy="-21" rx="31.39" ry="18"/>
<text text-anchor="middle" x="463" y="-15.95" font-family="Times,serif" font-size="14.00">Basic</text>
</g>
<!-- u1 -->
<g id="node2" class="node">
<title>u1</title>
<ellipse fill="#bbffbb" stroke="black" stroke-width="0" cx="363" cy="-104" rx="52.89" ry="18"/>
<text text-anchor="middle" x="363" y="-98.95" font-family="Times,serif" font-size="14.00">Constraints</text>
</g>
<!-- u1&#45;&gt;u0 -->
<g id="edge1" class="edge">
<title>u1&#45;&gt;u0</title>
<path fill="none" stroke="black" d="M382.28,-87.38C397.8,-74.81 419.76,-57.03 436.85,-43.18"/>
<polygon fill="black" stroke="black" points="439.04,-45.91 444.6,-36.9 434.63,-40.47 439.04,-45.91"/>
</g>
<!-- u2 -->
<g id="node3" class="node">
<title>u2</title>
<ellipse fill="#bbffbb" stroke="black" stroke-width="0" cx="670" cy="-353" rx="66.19" ry="18"/>
<text text-anchor="middle" x="670" y="-347.95" font-family="Times,serif" font-size="14.00">ExistsStepSAT</text>
</g>
<!-- u2&#45;&gt;u0 -->
<g id="edge2" class="edge">
<title>u2&#45;&gt;u0</title>
<path fill="none" stroke="black" d="M683.87,-335.74C720.73,-290.51 813.94,-161.63 748,-86 716.51,-49.88 576.2,-32.21 504.9,-25.44"/>
<polygon fill="black" stroke="black" points="505.45,-21.97 495.17,-24.54 504.81,-28.94 505.45,-21.97"/>
</g>
<!-- u2&#45;&gt;u1 -->
<g id="edge3" class="edge">
<title>u2&#45;&gt;u1</title>
<path fill="none" stroke="black" d="M671.08,-335.37C671.59,-313.96 669.44,-276.6 651,-252 593.15,-174.83 483.23,-135.03 417.19,-117.2"/>
<polygon fill="black" stroke="black" points="418.21,-113.85 407.65,-114.71 416.44,-120.62 418.21,-113.85"/>
</g>
<!-- u3 -->
<g id="node4" class="node">
<title>u3</title>
<ellipse fill="#bbffbb" stroke="black" stroke-width="0" cx="685" cy="-187" rx="61.08" ry="18"/>
<text text-anchor="middle" x="685" y="-181.95" font-family="Times,serif" font-size="14.00">PlanningTask</text>
</g>
<!-- u2&#45;&gt;u3 -->
<g id="edge4" class="edge">
<title>u2&#45;&gt;u3</title>
<path fill="none" stroke="black" d="M674.71,-335.05C678.02,-322.24 682.17,-304.16 684,-288 686.73,-263.86 686.78,-236.22 686.25,-216.13"/>
<polygon fill="black" stroke="black" points="689.75,-216.09 685.93,-206.21 682.76,-216.32 689.75,-216.09"/>
</g>
<!-- u5 -->
<g id="node6" class="node">
<title>u5</title>
<ellipse fill="#bbffbb" stroke="black" stroke-width="0" cx="576" cy="-270" rx="66.19" ry="18"/>
<text text-anchor="middle" x="576" y="-264.95" font-family="Times,serif" font-size="14.00">SequentialSAT</text>
</g>
<!-- u2&#45;&gt;u5 -->
<g id="edge5" class="edge">
<title>u2&#45;&gt;u5</title>
<path fill="none" stroke="black" d="M651.43,-336C637.74,-324.2 618.9,-307.97 603.48,-294.68"/>
<polygon fill="black" stroke="black" points="605.86,-292.11 596,-288.24 601.29,-297.41 605.86,-292.11"/>
</g>
<!-- u3&#45;&gt;u0 -->
<g id="edge6" class="edge">
<title>u3&#45;&gt;u0</title>
<path fill="none" stroke="black" d="M676.17,-169.38C663.9,-147.63 639.79,-109.55 610,-86 577.52,-60.33 533.16,-42.88 501.69,-32.77"/>
<polygon fill="black" stroke="black" points="502.76,-29.44 492.17,-29.82 500.69,-36.12 502.76,-29.44"/>
</g>
<!-- u3&#45;&gt;u1 -->
<g id="edge7" class="edge">
<title>u3&#45;&gt;u1</title>
<path fill="none" stroke="black" d="M640.57,-174.82C581.49,-159.96 477.27,-133.75 414.72,-118.01"/>
<polygon fill="black" stroke="black" points="415.95,-114.71 405.4,-115.66 414.24,-121.5 415.95,-114.71"/>
</g>
<!-- u4 -->
<g id="node5" class="node">
<title>u4</title>
<ellipse fill="#bbffbb" stroke="black" stroke-width="0" cx="711" cy="-104" rx="27.81" ry="18"/>
<text text-anchor="middle" x="711" y="-98.95" font-family="Times,serif" font-size="14.00">SAS</text>
</g>
<!-- u3&#45;&gt;u4 -->
<g id="edge8" class="edge">
<title>u3&#45;&gt;u4</title>
<path fill="none" stroke="black" d="M690.39,-169.22C693.83,-158.5 698.36,-144.37 702.3,-132.09"/>
<polygon fill="black" stroke="black" points="705.52,-133.52 705.25,-122.93 698.86,-131.38 705.52,-133.52"/>
</g>
<!-- u5&#45;&gt;u0 -->
<g id="edge9" class="edge">
<title>u5&#45;&gt;u0</title>
<path fill="none" stroke="black" d="M569.07,-252.19C555.62,-219.76 524.75,-146.43 496,-86 490,-73.38 482.94,-59.58 476.9,-48.04"/>
<polygon fill="black" stroke="black" points="480.17,-46.72 472.4,-39.5 473.97,-49.98 480.17,-46.72"/>
</g>
<!-- u5&#45;&gt;u1 -->
<g id="edge10" class="edge">
<title>u5&#45;&gt;u1</title>
<path fill="none" stroke="black" d="M555.19,-252.98C517.06,-223.62 435.9,-161.13 392.24,-127.52"/>
<polygon fill="black" stroke="black" points="394.53,-124.86 384.47,-121.53 390.26,-130.4 394.53,-124.86"/>
</g>
<!-- u5&#45;&gt;u3 -->
<g id="edge11" class="edge">
<title>u5&#45;&gt;u3</title>
<path fill="none" stroke="black" d="M597.53,-253C613.91,-240.83 636.65,-223.93 654.84,-210.41"/>
<polygon fill="black" stroke="black" points="656.73,-213.37 662.67,-204.6 652.55,-207.75 656.73,-213.37"/>
</g>
<!-- u6 -->
<g id="node7" class="node">
<title>u6</title>
<ellipse fill="#bbffbb" stroke="black" stroke-width="0" cx="347" cy="-270" rx="69.26" ry="18"/>
<text text-anchor="middle" x="347" y="-264.95" font-family="Times,serif" font-size="14.00">LTLConstraints</text>
</g>
<!-- u6&#45;&gt;u0 -->
<g id="edge12" class="edge">
<title>u6&#45;&gt;u0</title>
<path fill="none" stroke="black" d="M356.58,-252.58C372.03,-225.77 402.94,-170.68 425,-122 435.95,-97.85 446.5,-69.53 453.7,-49.21"/>
<polygon fill="black" stroke="black" points="456.93,-50.56 456.93,-39.97 450.32,-48.25 456.93,-50.56"/>
</g>
<!-- u6&#45;&gt;u1 -->
<g id="edge13" class="edge">
<title>u6&#45;&gt;u1</title>
<path fill="none" stroke="black" d="M348.65,-252.07C351.41,-223.81 356.97,-166.78 360.3,-132.63"/>
<polygon fill="black" stroke="black" points="363.75,-133.4 361.23,-123.1 356.78,-132.72 363.75,-133.4"/>
</g>
<!-- u7 -->
<g id="node8" class="node">
<title>u7</title>
<ellipse fill="#bbffbb" stroke="black" stroke-width="0" cx="182" cy="-187" rx="76.94" ry="18"/>
<text text-anchor="middle" x="182" y="-181.95" font-family="Times,serif" font-size="14.00">PDDLConstraints</text>
</g>
<!-- u6&#45;&gt;u7 -->
<g id="edge14" class="edge">
<title>u6&#45;&gt;u7</title>
<path fill="none" stroke="black" d="M316.35,-253.95C290.21,-241.12 252.37,-222.55 223.51,-208.38"/>
<polygon fill="black" stroke="black" points="225.2,-205.31 214.68,-204.05 222.12,-211.59 225.2,-205.31"/>
</g>
<!-- u7&#45;&gt;u0 -->
<g id="edge15" class="edge">
<title>u7&#45;&gt;u0</title>
<path fill="none" stroke="black" d="M198.02,-169.56C219.72,-148.03 260.44,-110.18 301,-86 340.79,-62.28 390.97,-44.03 424.85,-33.2"/>
<polygon fill="black" stroke="black" points="425.74,-36.59 434.24,-30.27 423.65,-29.91 425.74,-36.59"/>
</g>
<!-- u7&#45;&gt;u1 -->
<g id="edge16" class="edge">
<title>u7&#45;&gt;u1</title>
<path fill="none" stroke="black" d="M215.62,-170.95C245.75,-157.47 290.02,-137.66 322.17,-123.27"/>
<polygon fill="black" stroke="black" points="323.49,-126.52 331.19,-119.24 320.63,-120.13 323.49,-126.52"/>
</g>
<!-- u8 -->
<g id="node9" class="node">
<title>u8</title>
<ellipse fill="#bbffbb" stroke="black" stroke-width="0" cx="125" cy="-270" rx="96.9" ry="18"/>
<text text-anchor="middle" x="125" y="-264.95" font-family="Times,serif" font-size="14.00">ParsePDDLConstraints</text>
</g>
<!-- u8&#45;&gt;u0 -->
<g id="edge17" class="edge">
<title>u8&#45;&gt;u0</title>
<path fill="none" stroke="black" d="M112.56,-252.4C98.68,-231.69 80.14,-195.74 96,-169 163.93,-54.51 339.6,-29.12 420.75,-23.54"/>
<polygon fill="black" stroke="black" points="420.74,-27.05 430.51,-22.95 420.31,-20.06 420.74,-27.05"/>
</g>
<!-- u8&#45;&gt;u1 -->
<g id="edge18" class="edge">
<title>u8&#45;&gt;u1</title>
<path fill="none" stroke="black" d="M169.9,-254.08C199.34,-243.1 237.81,-226.37 268,-205 297.93,-183.82 326.04,-152.2 343.81,-130.2"/>
<polygon fill="black" stroke="black" points="346.35,-132.63 349.82,-122.61 340.87,-128.28 346.35,-132.63"/>
</g>
<!-- u8&#45;&gt;u7 -->
<g id="edge19" class="edge">
<title>u8&#45;&gt;u7</title>
<path fill="none" stroke="black" d="M136.81,-252.22C144.61,-241.14 154.97,-226.41 163.81,-213.85"/>
<polygon fill="black" stroke="black" points="166.44,-216.19 169.33,-206 160.72,-212.16 166.44,-216.19"/>
</g>
<!-- u9 -->
<g id="node10" class="node">
<title>u9</title>
<ellipse fill="#bbffbb" stroke="black" stroke-width="0" cx="860" cy="-353" rx="47.77" ry="18"/>
<text text-anchor="middle" x="860" y="-347.95" font-family="Times,serif" font-size="14.00">ParseSAS</text>
</g>
<!-- u9&#45;&gt;u4 -->
<g id="edge20" class="edge">
<title>u9&#45;&gt;u4</title>
<path fill="none" stroke="black" d="M851.03,-335.33C833.42,-302.84 792.74,-228.99 755,-169 746.64,-155.71 736.79,-141.28 728.52,-129.49"/>
<polygon fill="black" stroke="black" points="731.53,-127.67 722.9,-121.52 725.81,-131.71 731.53,-127.67"/>
</g>
<!-- u10 -->
<g id="node11" class="node">
<title>u10</title>
<ellipse fill="#bbffbb" stroke="black" stroke-width="0" cx="482" cy="-436" rx="34.97" ry="18"/>
<text text-anchor="middle" x="482" y="-430.95" font-family="Times,serif" font-size="14.00">Solver</text>
</g>
<!-- u10&#45;&gt;u1 -->
<g id="edge21" class="edge">
<title>u10&#45;&gt;u1</title>
<path fill="none" stroke="black" d="M453.98,-425.51C405.76,-407.48 308.47,-363.19 269,-288 261.56,-273.83 264.29,-267.29 269,-252 276.44,-227.85 287.23,-226.19 301,-205 317.12,-180.21 334.83,-151.48 347.18,-131.19"/>
<polygon fill="black" stroke="black" points="350.13,-133.07 352.33,-122.71 344.15,-129.44 350.13,-133.07"/>
</g>
<!-- u10&#45;&gt;u2 -->
<g id="edge22" class="edge">
<title>u10&#45;&gt;u2</title>
<path fill="none" stroke="black" d="M507.75,-423.91C538.23,-410.78 589.48,-388.69 626.23,-372.86"/>
<polygon fill="black" stroke="black" points="627.46,-376.14 635.26,-368.97 624.69,-369.71 627.46,-376.14"/>
</g>
<!-- u10&#45;&gt;u3 -->
<g id="edge23" class="edge">
<title>u10&#45;&gt;u3</title>
<path fill="none" stroke="black" d="M515.85,-431.86C580.32,-425.11 716.84,-406.84 745,-371 782.52,-323.26 736.61,-251.16 706.76,-213.28"/>
<polygon fill="black" stroke="black" points="709.55,-211.17 700.53,-205.6 704.11,-215.57 709.55,-211.17"/>
</g>
<!-- u10&#45;&gt;u5 -->
<g id="edge24" class="edge">
<title>u10&#45;&gt;u5</title>
<path fill="none" stroke="black" d="M495.91,-419.49C506.66,-407 521.44,-388.67 532,-371 545.96,-347.65 558.09,-319.07 566.06,-298.45"/>
<polygon fill="black" stroke="black" points="569.25,-299.91 569.51,-289.32 562.7,-297.44 569.25,-299.91"/>
</g>
<!-- u10&#45;&gt;u6 -->
<g id="edge25" class="edge">
<title>u10&#45;&gt;u6</title>
<path fill="none" stroke="black" d="M469.3,-419.57C445.92,-391.17 395.89,-330.39 367.59,-296.02"/>
<polygon fill="black" stroke="black" points="370.58,-294.14 361.53,-288.65 365.18,-298.59 370.58,-294.14"/>
</g>
<!-- u10&#45;&gt;u8 -->
<g id="edge26" class="edge">
<title>u10&#45;&gt;u8</title>
<path fill="none" stroke="black" d="M448.32,-431.38C399.15,-425 305.94,-408.66 236,-371 200.31,-351.79 166.84,-318.77 146.17,-295.96"/>
<polygon fill="black" stroke="black" points="148.9,-293.76 139.64,-288.61 143.66,-298.41 148.9,-293.76"/>
</g>
<!-- u10&#45;&gt;u9 -->
<g id="edge27" class="edge">
<title>u10&#45;&gt;u9</title>
<path fill="none" stroke="black" d="M514,-429.26C571.24,-418.83 694.81,-395.57 798,-371 802.64,-369.89 807.46,-368.68 812.27,-367.44"/>
<polygon fill="black" stroke="black" points="813.16,-370.82 821.92,-364.87 811.36,-364.06 813.16,-370.82"/>
</g>
<!-- u11 -->
<g id="node12" class="node">
<title>u11</title>
<ellipse fill="#bbffbb" stroke="black" stroke-width="0" cx="482" cy="-353" rx="41.12" ry="18"/>
<text text-anchor="middle" x="482" y="-347.95" font-family="Times,serif" font-size="14.00">Validate</text>
</g>
<!-- u10&#45;&gt;u11 -->
<g id="edge28" class="edge">
<title>u10&#45;&gt;u11</title>
<path fill="none" stroke="black" d="M482,-418.22C482,-407.79 482,-394.13 482,-382.08"/>
<polygon fill="black" stroke="black" points="485.5,-382.28 482,-372.28 478.5,-382.28 485.5,-382.28"/>
</g>
<!-- u11&#45;&gt;u0 -->
<g id="edge29" class="edge">
<title>u11&#45;&gt;u0</title>
<path fill="none" stroke="black" d="M481.03,-335.18C477.96,-281.89 468.43,-116.38 464.61,-49.98"/>
<polygon fill="black" stroke="black" points="468.12,-50.08 464.05,-40.3 461.13,-50.48 468.12,-50.08"/>
</g>
<!-- u11&#45;&gt;u1 -->
<g id="edge30" class="edge">
<title>u11&#45;&gt;u1</title>
<path fill="none" stroke="black" d="M474.01,-335.41C453.81,-293.49 400.58,-183.01 375.91,-131.79"/>
<polygon fill="black" stroke="black" points="379.11,-130.37 371.61,-122.88 372.8,-133.41 379.11,-130.37"/>
</g>
<!-- u11&#45;&gt;u5 -->
<g id="edge31" class="edge">
<title>u11&#45;&gt;u5</title>
<path fill="none" stroke="black" d="M499.68,-336.76C513.59,-324.78 533.21,-307.87 549.07,-294.21"/>
<polygon fill="black" stroke="black" points="551,-297.17 556.29,-287.99 546.43,-291.86 551,-297.17"/>
</g>
<!-- u12 -->
<g id="node13" class="node">
<title>u12</title>
<ellipse fill="#ffffbb" stroke="black" stroke-width="0" cx="241" cy="-519" rx="30.88" ry="18"/>
<text text-anchor="middle" x="241" y="-513.95" font-family="Times,serif" font-size="14.00">Main</text>
</g>
<!-- u12&#45;&gt;u1 -->
<g id="edge32" class="edge">
<title>u12&#45;&gt;u1</title>
<path fill="none" stroke="black" d="M212.41,-512.63C148.57,-498.81 0,-455.72 0,-354 0,-354 0,-354 0,-269 0,-139.19 195.17,-111.57 299.29,-106.07"/>
<polygon fill="black" stroke="black" points="299.27,-109.58 309.09,-105.61 298.94,-102.59 299.27,-109.58"/>
</g>
<!-- u12&#45;&gt;u10 -->
<g id="edge33" class="edge">
<title>u12&#45;&gt;u10</title>
<path fill="none" stroke="black" d="M266.79,-509.33C309.13,-495.1 393.59,-466.71 443.18,-450.05"/>
<polygon fill="black" stroke="black" points="444,-453.46 452.37,-446.96 441.77,-446.83 444,-453.46"/>
</g>
</g>
</svg>
