<?xml version="1.0" encoding="UTF-8" standalone="no"?>
<!DOCTYPE svg PUBLIC "-//W3C//DTD SVG 1.1//EN"
 "http://www.w3.org/Graphics/SVG/1.1/DTD/svg11.dtd">
<!-- Generated by graphviz version 9.0.0 (20230911.1827)
 -->
<!-- Title: G Pages: 1 -->
<svg width="432pt" height="285pt"
 viewBox="0.00 0.00 432.00 285.07" xmlns="http://www.w3.org/2000/svg" xmlns:xlink="http://www.w3.org/1999/xlink">
<g id="graph0" class="graph" transform="scale(0.425911 0.425911) rotate(0) translate(4 665.32)">
<title>G</title>
<polygon fill="white" stroke="none" points="-4,4 -4,-665.32 1010.3,-665.32 1010.3,4 -4,4"/>
<g id="clust1" class="cluster">
<title>cluster_0</title>
<polygon fill="#000000" fill-opacity="0.058824" stroke="#000000" stroke-opacity="0.058824" points="353.53,-551.42 353.53,-650.91 431.53,-650.91 431.53,-551.42 353.53,-551.42"/>
<text text-anchor="middle" x="392.53" y="-633.61" font-family="Times,serif" font-size="14.00">app</text>
</g>
<!-- u0 -->
<g id="node1" class="node">
<title>u0</title>
<ellipse fill="#bbffbb" stroke="black" stroke-width="0" cx="379.53" cy="-211" rx="52.89" ry="18"/>
<text text-anchor="middle" x="379.53" y="-205.95" font-family="Times,serif" font-size="14.00">Constraints</text>
</g>
<!-- u1 -->
<g id="node2" class="node">
<title>u1</title>
<ellipse fill="#bbffbb" stroke="black" stroke-width="0" cx="514.53" cy="-23" rx="61.08" ry="18"/>
<text text-anchor="middle" x="514.53" y="-17.95" font-family="Times,serif" font-size="14.00">PlanningTask</text>
</g>
<!-- u0&#45;&gt;u1 -->
<g id="edge1" class="edge">
<title>u0&#45;&gt;u1</title>
<path fill="none" stroke="black" d="M391.51,-193.49C415.12,-160.95 467.84,-88.33 495.98,-49.55"/>
<polygon fill="black" stroke="black" points="498.64,-51.84 501.68,-41.69 492.98,-47.73 498.64,-51.84"/>
</g>
<!-- u2 -->
<g id="node3" class="node">
<title>u2</title>
<ellipse fill="#bbffbb" stroke="black" stroke-width="0" cx="243.53" cy="-117" rx="27.3" ry="18"/>
<text text-anchor="middle" x="243.53" y="-111.95" font-family="Times,serif" font-size="14.00">SAT</text>
</g>
<!-- u0&#45;&gt;u2 -->
<g id="edge2" class="edge">
<title>u0&#45;&gt;u2</title>
<path fill="none" stroke="black" d="M357.07,-194.81C333.49,-178.86 296.39,-153.76 271.07,-136.63"/>
<polygon fill="black" stroke="black" points="273.16,-133.82 262.91,-131.12 269.24,-139.62 273.16,-133.82"/>
</g>
<!-- u2&#45;&gt;u1 -->
<g id="edge3" class="edge">
<title>u2&#45;&gt;u1</title>
<path fill="none" stroke="black" d="M265.53,-106.51C271.64,-103.97 278.31,-101.3 284.53,-99 345.07,-76.62 415.81,-54.08 462.68,-39.64"/>
<polygon fill="black" stroke="black" points="463.5,-43.05 472.03,-36.77 461.45,-36.36 463.5,-43.05"/>
</g>
<!-- u3 -->
<g id="node4" class="node">
<title>u3</title>
<ellipse fill="#bbffbb" stroke="black" stroke-width="0" cx="835.53" cy="-398" rx="57.49" ry="18"/>
<text text-anchor="middle" x="835.53" y="-392.95" font-family="Times,serif" font-size="14.00">ConvertSAS</text>
</g>
<!-- u3&#45;&gt;u1 -->
<g id="edge4" class="edge">
<title>u3&#45;&gt;u1</title>
<path fill="none" stroke="black" d="M836.86,-380.18C839.84,-330.13 841.56,-180.6 764.53,-99 718.55,-50.29 642.31,-32.83 586.1,-26.77"/>
<polygon fill="black" stroke="black" points="586.58,-23.3 576.29,-25.82 585.9,-30.26 586.58,-23.3"/>
</g>
<!-- u4 -->
<g id="node5" class="node">
<title>u4</title>
<ellipse fill="#bbffbb" stroke="black" stroke-width="0" cx="913.53" cy="-304" rx="27.81" ry="18"/>
<text text-anchor="middle" x="913.53" y="-298.95" font-family="Times,serif" font-size="14.00">SAS</text>
</g>
<!-- u3&#45;&gt;u4 -->
<g id="edge5" class="edge">
<title>u3&#45;&gt;u4</title>
<path fill="none" stroke="black" d="M849.47,-380.55C861.82,-365.99 879.98,-344.57 893.81,-328.25"/>
<polygon fill="black" stroke="black" points="896.21,-330.83 900.01,-320.94 890.88,-326.3 896.21,-330.83"/>
</g>
<!-- u5 -->
<g id="node6" class="node">
<title>u5</title>
<ellipse fill="#bbffbb" stroke="black" stroke-width="0" cx="174.53" cy="-398" rx="66.19" ry="18"/>
<text text-anchor="middle" x="174.53" y="-392.95" font-family="Times,serif" font-size="14.00">ExistsStepSAT</text>
</g>
<!-- u5&#45;&gt;u0 -->
<g id="edge6" class="edge">
<title>u5&#45;&gt;u0</title>
<path fill="none" stroke="black" d="M204.35,-381.98C229.68,-368.37 266.17,-346.72 293.53,-322 321.54,-296.69 347.3,-261.46 363.18,-237.75"/>
<polygon fill="black" stroke="black" points="365.95,-239.9 368.53,-229.62 360.11,-236.05 365.95,-239.9"/>
</g>
<!-- u5&#45;&gt;u1 -->
<g id="edge7" class="edge">
<title>u5&#45;&gt;u1</title>
<path fill="none" stroke="black" d="M119.03,-388.46C80,-379.24 30.46,-360.35 5.53,-322 -3.2,-308.59 0.05,-301.03 5.53,-286 42.66,-184.03 69.51,-154.9 162.53,-99 249.63,-46.65 368.15,-30.54 442.99,-25.76"/>
<polygon fill="black" stroke="black" points="442.88,-29.27 452.66,-25.2 442.47,-22.29 442.88,-29.27"/>
</g>
<!-- u5&#45;&gt;u2 -->
<g id="edge8" class="edge">
<title>u5&#45;&gt;u2</title>
<path fill="none" stroke="black" d="M176.75,-380.33C179.79,-358.5 185.79,-319.13 193.53,-286 205.29,-235.63 223.47,-178.09 234.37,-145.11"/>
<polygon fill="black" stroke="black" points="237.58,-146.54 237.41,-135.95 230.93,-144.33 237.58,-146.54"/>
</g>
<!-- u6 -->
<g id="node7" class="node">
<title>u6</title>
<ellipse fill="#bbffbb" stroke="black" stroke-width="0" cx="80.53" cy="-304" rx="66.19" ry="18"/>
<text text-anchor="middle" x="80.53" y="-298.95" font-family="Times,serif" font-size="14.00">SequentialSAT</text>
</g>
<!-- u5&#45;&gt;u6 -->
<g id="edge9" class="edge">
<title>u5&#45;&gt;u6</title>
<path fill="none" stroke="black" d="M158.15,-380.97C143.55,-366.68 121.96,-345.55 105.26,-329.2"/>
<polygon fill="black" stroke="black" points="107.7,-326.7 98.11,-322.21 102.81,-331.7 107.7,-326.7"/>
</g>
<!-- u6&#45;&gt;u0 -->
<g id="edge10" class="edge">
<title>u6&#45;&gt;u0</title>
<path fill="none" stroke="black" d="M122.73,-290.15C177.63,-273.45 273.32,-244.32 331.11,-226.74"/>
<polygon fill="black" stroke="black" points="331.79,-230.19 340.34,-223.93 329.75,-223.49 331.79,-230.19"/>
</g>
<!-- u6&#45;&gt;u1 -->
<g id="edge11" class="edge">
<title>u6&#45;&gt;u1</title>
<path fill="none" stroke="black" d="M85.35,-286.13C97.88,-245.78 135.58,-143.68 207.53,-99 280.3,-53.81 378.49,-35.84 444.03,-28.7"/>
<polygon fill="black" stroke="black" points="444.38,-32.19 453.97,-27.69 443.66,-25.22 444.38,-32.19"/>
</g>
<!-- u6&#45;&gt;u2 -->
<g id="edge12" class="edge">
<title>u6&#45;&gt;u2</title>
<path fill="none" stroke="black" d="M90.94,-286.54C105.35,-264.31 132.74,-223.9 160.53,-193 178.55,-172.96 201.43,-152.6 218.6,-138.16"/>
<polygon fill="black" stroke="black" points="220.38,-141.23 225.84,-132.15 215.91,-135.85 220.38,-141.23"/>
</g>
<!-- u7 -->
<g id="node8" class="node">
<title>u7</title>
<ellipse fill="#bbffbb" stroke="black" stroke-width="0" cx="441.53" cy="-398" rx="69.26" ry="18"/>
<text text-anchor="middle" x="441.53" y="-392.95" font-family="Times,serif" font-size="14.00">LTLConstraints</text>
</g>
<!-- u7&#45;&gt;u0 -->
<g id="edge13" class="edge">
<title>u7&#45;&gt;u0</title>
<path fill="none" stroke="black" d="M434.58,-380.16C428.46,-365.05 419.45,-342.21 412.53,-322 403.05,-294.34 393.6,-262.28 387.26,-239.93"/>
<polygon fill="black" stroke="black" points="390.64,-239.04 384.57,-230.36 383.9,-240.93 390.64,-239.04"/>
</g>
<!-- u7&#45;&gt;u1 -->
<g id="edge14" class="edge">
<title>u7&#45;&gt;u1</title>
<path fill="none" stroke="black" d="M493.22,-386.07C550.21,-372.85 636.4,-348.97 655.53,-322 721.66,-228.74 598.75,-99.59 541.54,-47.34"/>
<polygon fill="black" stroke="black" points="544.18,-45.01 534.41,-40.92 539.5,-50.21 544.18,-45.01"/>
</g>
<!-- u7&#45;&gt;u2 -->
<g id="edge15" class="edge">
<title>u7&#45;&gt;u2</title>
<path fill="none" stroke="black" d="M447.39,-380.07C459.25,-342.55 481.68,-251.14 441.53,-193 405.6,-140.97 328.55,-125 281.87,-120.12"/>
<polygon fill="black" stroke="black" points="282.2,-116.63 271.92,-119.22 281.56,-123.61 282.2,-116.63"/>
</g>
<!-- u8 -->
<g id="node9" class="node">
<title>u8</title>
<ellipse fill="#bbffbb" stroke="black" stroke-width="0" cx="569.53" cy="-304" rx="76.94" ry="18"/>
<text text-anchor="middle" x="569.53" y="-298.95" font-family="Times,serif" font-size="14.00">PDDLConstraints</text>
</g>
<!-- u7&#45;&gt;u8 -->
<g id="edge16" class="edge">
<title>u7&#45;&gt;u8</title>
<path fill="none" stroke="black" d="M463.82,-380.97C484.25,-366.29 514.73,-344.39 537.72,-327.86"/>
<polygon fill="black" stroke="black" points="539.75,-330.71 545.83,-322.03 535.66,-325.03 539.75,-330.71"/>
</g>
<!-- u8&#45;&gt;u0 -->
<g id="edge17" class="edge">
<title>u8&#45;&gt;u0</title>
<path fill="none" stroke="black" d="M537.73,-287.77C504.94,-272.07 453.77,-247.56 418.55,-230.69"/>
<polygon fill="black" stroke="black" points="420.52,-227.75 409.99,-226.59 417.5,-234.07 420.52,-227.75"/>
</g>
<!-- u8&#45;&gt;u1 -->
<g id="edge18" class="edge">
<title>u8&#45;&gt;u1</title>
<path fill="none" stroke="black" d="M566.25,-286.38C557.14,-240.16 531.42,-109.72 520.05,-52.03"/>
<polygon fill="black" stroke="black" points="523.52,-51.5 518.15,-42.37 516.65,-52.86 523.52,-51.5"/>
</g>
<!-- u8&#45;&gt;u2 -->
<g id="edge19" class="edge">
<title>u8&#45;&gt;u2</title>
<path fill="none" stroke="black" d="M560,-286.28C545.46,-262.21 515.49,-217.98 478.53,-193 416.57,-151.13 329.81,-131.49 280.9,-123.23"/>
<polygon fill="black" stroke="black" points="281.53,-119.78 271.1,-121.65 280.42,-126.69 281.53,-119.78"/>
</g>
<!-- u9 -->
<g id="node10" class="node">
<title>u9</title>
<ellipse fill="#bbffbb" stroke="black" stroke-width="0" cx="625.53" cy="-398" rx="96.9" ry="18"/>
<text text-anchor="middle" x="625.53" y="-392.95" font-family="Times,serif" font-size="14.00">ParsePDDLConstraints</text>
</g>
<!-- u9&#45;&gt;u0 -->
<g id="edge20" class="edge">
<title>u9&#45;&gt;u0</title>
<path fill="none" stroke="black" d="M588.27,-381.41C558.42,-367.98 516.27,-346.88 483.53,-322 450.46,-296.88 418.59,-260.86 399.03,-236.96"/>
<polygon fill="black" stroke="black" points="401.88,-234.91 392.88,-229.32 396.43,-239.31 401.88,-234.91"/>
</g>
<!-- u9&#45;&gt;u1 -->
<g id="edge21" class="edge">
<title>u9&#45;&gt;u1</title>
<path fill="none" stroke="black" d="M641.13,-380.38C653.38,-366.12 669.5,-344.39 676.53,-322 693.69,-267.29 692.96,-248.22 677.53,-193 664.37,-145.94 653.83,-134.75 620.53,-99 600.4,-77.4 573.13,-58.28 551.29,-44.74"/>
<polygon fill="black" stroke="black" points="553.35,-41.9 542.98,-39.72 549.72,-47.89 553.35,-41.9"/>
</g>
<!-- u9&#45;&gt;u8 -->
<g id="edge22" class="edge">
<title>u9&#45;&gt;u8</title>
<path fill="none" stroke="black" d="M615.26,-380.13C606.97,-366.51 595.16,-347.11 585.62,-331.43"/>
<polygon fill="black" stroke="black" points="588.71,-329.78 580.52,-323.06 582.73,-333.42 588.71,-329.78"/>
</g>
<!-- u10 -->
<g id="node11" class="node">
<title>u10</title>
<ellipse fill="#bbffbb" stroke="black" stroke-width="0" cx="958.53" cy="-398" rx="47.77" ry="18"/>
<text text-anchor="middle" x="958.53" y="-392.95" font-family="Times,serif" font-size="14.00">ParseSAS</text>
</g>
<!-- u10&#45;&gt;u4 -->
<g id="edge23" class="edge">
<title>u10&#45;&gt;u4</title>
<path fill="none" stroke="black" d="M950.48,-380.55C943.79,-366.86 934.13,-347.12 926.36,-331.24"/>
<polygon fill="black" stroke="black" points="929.55,-329.8 922.02,-322.36 923.27,-332.88 929.55,-329.8"/>
</g>
<!-- u11 -->
<g id="node12" class="node">
<title>u11</title>
<ellipse fill="#bbffbb" stroke="black" stroke-width="0" cx="392.53" cy="-492" rx="34.97" ry="18"/>
<text text-anchor="middle" x="392.53" y="-486.95" font-family="Times,serif" font-size="14.00">Solver</text>
</g>
<!-- u11&#45;&gt;u0 -->
<g id="edge24" class="edge">
<title>u11&#45;&gt;u0</title>
<path fill="none" stroke="black" d="M384.12,-474.54C377.04,-459.69 367.44,-437 363.53,-416 351.92,-353.81 364.2,-279.43 372.76,-239.91"/>
<polygon fill="black" stroke="black" points="376.14,-240.82 374.93,-230.29 369.31,-239.28 376.14,-240.82"/>
</g>
<!-- u11&#45;&gt;u1 -->
<g id="edge25" class="edge">
<title>u11&#45;&gt;u1</title>
<path fill="none" stroke="black" d="M426.67,-488.2C504.13,-481.13 689.68,-459.91 731.53,-416 766.05,-379.77 750.53,-355.05 750.53,-305 750.53,-305 750.53,-305 750.53,-210 750.53,-117.4 637.07,-63.79 567.49,-39.62"/>
<polygon fill="black" stroke="black" points="568.75,-36.35 558.15,-36.48 566.51,-42.99 568.75,-36.35"/>
</g>
<!-- u11&#45;&gt;u2 -->
<g id="edge26" class="edge">
<title>u11&#45;&gt;u2</title>
<path fill="none" stroke="black" d="M358.04,-490.09C296.96,-486.99 167.8,-473.54 78.53,-416 34.06,-387.35 22.68,-372.04 5.53,-322 -29.63,-219.41 134.15,-152.93 208.47,-128.5"/>
<polygon fill="black" stroke="black" points="209.27,-131.92 217.72,-125.53 207.13,-125.25 209.27,-131.92"/>
</g>
<!-- u11&#45;&gt;u3 -->
<g id="edge27" class="edge">
<title>u11&#45;&gt;u3</title>
<path fill="none" stroke="black" d="M424.46,-484.97C488.9,-472.7 639.07,-443.66 764.53,-416 769.82,-414.83 775.32,-413.58 780.82,-412.31"/>
<polygon fill="black" stroke="black" points="781.62,-415.72 790.55,-410.02 780.02,-408.9 781.62,-415.72"/>
</g>
<!-- u11&#45;&gt;u5 -->
<g id="edge28" class="edge">
<title>u11&#45;&gt;u5</title>
<path fill="none" stroke="black" d="M366.66,-480.09C330.3,-464.74 263.54,-436.57 219.09,-417.81"/>
<polygon fill="black" stroke="black" points="220.55,-414.62 209.97,-413.96 217.83,-421.07 220.55,-414.62"/>
</g>
<!-- u11&#45;&gt;u6 -->
<g id="edge29" class="edge">
<title>u11&#45;&gt;u6</title>
<path fill="none" stroke="black" d="M359.12,-487.01C289.98,-478.06 134.68,-454.12 99.53,-416 79.03,-393.77 76.36,-357.87 77.47,-332.95"/>
<polygon fill="black" stroke="black" points="80.94,-333.43 78.14,-323.21 73.96,-332.94 80.94,-333.43"/>
</g>
<!-- u11&#45;&gt;u7 -->
<g id="edge30" class="edge">
<title>u11&#45;&gt;u7</title>
<path fill="none" stroke="black" d="M401.06,-474.97C408.3,-461.38 418.84,-441.59 427.35,-425.62"/>
<polygon fill="black" stroke="black" points="430.27,-427.58 431.88,-417.11 424.09,-424.29 430.27,-427.58"/>
</g>
<!-- u11&#45;&gt;u9 -->
<g id="edge31" class="edge">
<title>u11&#45;&gt;u9</title>
<path fill="none" stroke="black" d="M419.25,-480.45C457.48,-465.35 528.43,-437.34 576.31,-418.43"/>
<polygon fill="black" stroke="black" points="577.33,-421.79 585.35,-414.86 574.76,-415.28 577.33,-421.79"/>
</g>
<!-- u11&#45;&gt;u10 -->
<g id="edge32" class="edge">
<title>u11&#45;&gt;u10</title>
<path fill="none" stroke="black" d="M426.48,-487.7C508.7,-479.34 724.72,-455.18 901.53,-416 905.27,-415.17 909.13,-414.22 912.98,-413.21"/>
<polygon fill="black" stroke="black" points="913.6,-416.67 922.31,-410.63 911.74,-409.93 913.6,-416.67"/>
</g>
<!-- u12 -->
<g id="node13" class="node">
<title>u12</title>
<ellipse fill="#bbffbb" stroke="black" stroke-width="0" cx="243.53" cy="-304" rx="41.12" ry="18"/>
<text text-anchor="middle" x="243.53" y="-298.95" font-family="Times,serif" font-size="14.00">Validate</text>
</g>
<!-- u11&#45;&gt;u12 -->
<g id="edge33" class="edge">
<title>u11&#45;&gt;u12</title>
<path fill="none" stroke="black" d="M379.58,-475.58C366.96,-460.49 347.26,-436.79 330.53,-416 306.88,-386.63 280.2,-352.43 262.69,-329.83"/>
<polygon fill="black" stroke="black" points="265.6,-327.87 256.71,-322.11 260.07,-332.16 265.6,-327.87"/>
</g>
<!-- u12&#45;&gt;u0 -->
<g id="edge34" class="edge">
<title>u12&#45;&gt;u0</title>
<path fill="none" stroke="black" d="M264.78,-288.78C287.03,-273.89 322.24,-250.33 347.8,-233.23"/>
<polygon fill="black" stroke="black" points="349.45,-236.34 355.81,-227.87 345.55,-230.52 349.45,-236.34"/>
</g>
<!-- u12&#45;&gt;u1 -->
<g id="edge35" class="edge">
<title>u12&#45;&gt;u1</title>
<path fill="none" stroke="black" d="M252.58,-286.74C265.44,-264.37 290.45,-223.44 317.53,-193 369.93,-134.09 442.73,-76.76 483.56,-46.37"/>
<polygon fill="black" stroke="black" points="485.56,-49.25 491.52,-40.49 481.4,-43.62 485.56,-49.25"/>
</g>
<!-- u12&#45;&gt;u2 -->
<g id="edge36" class="edge">
<title>u12&#45;&gt;u2</title>
<path fill="none" stroke="black" d="M243.53,-286.26C243.53,-254.49 243.53,-185.15 243.53,-146.13"/>
<polygon fill="black" stroke="black" points="247.03,-146.35 243.53,-136.35 240.03,-146.35 247.03,-146.35"/>
</g>
<!-- u13 -->
<g id="node14" class="node">
<title>u13</title>
<ellipse fill="#ffffbb" stroke="black" stroke-width="0" cx="392.53" cy="-585" rx="30.88" ry="18"/>
<text text-anchor="middle" x="392.53" y="-579.95" font-family="Times,serif" font-size="14.00">Main</text>
</g>
<!-- u13&#45;&gt;u11 -->
<g id="edge37" class="edge">
<title>u13&#45;&gt;u11</title>
<path fill="none" stroke="black" d="M392.53,-567.31C392.53,-554.43 392.53,-536.33 392.53,-521.22"/>
<polygon fill="black" stroke="black" points="396.03,-521.41 392.53,-511.41 389.03,-521.41 396.03,-521.41"/>
</g>
</g>
</svg>
