<?xml version="1.0" encoding="UTF-8" standalone="no"?>
<!DOCTYPE svg PUBLIC "-//W3C//DTD SVG 1.1//EN"
 "http://www.w3.org/Graphics/SVG/1.1/DTD/svg11.dtd">
<!-- Generated by graphviz version 2.43.0 (0)
 -->
<!-- Title: G Pages: 1 -->
<svg width="988pt" height="515pt"
 viewBox="0.00 0.00 987.90 515.00" xmlns="http://www.w3.org/2000/svg" xmlns:xlink="http://www.w3.org/1999/xlink">
<g id="graph0" class="graph" transform="scale(1 1) rotate(0) translate(4 511)">
<title>G</title>
<polygon fill="white" stroke="transparent" points="-4,4 -4,-511 983.9,-511 983.9,4 -4,4"/>
<g id="clust1" class="cluster">
<title>cluster_0</title>
<polygon fill="#000000" fill-opacity="0.058824" stroke="#000000" stroke-opacity="0.058824" points="425.9,-424 425.9,-499 509.9,-499 509.9,-424 425.9,-424"/>
<text text-anchor="middle" x="467.9" y="-483.8" font-family="Times,serif" font-size="14.00">app</text>
</g>
<!-- u0 -->
<g id="node1" class="node">
<title>u0</title>
<ellipse fill="#bbffbb" stroke="black" stroke-width="0" cx="508.9" cy="-18" rx="36" ry="18"/>
<text text-anchor="middle" x="508.9" y="-14.3" font-family="Times,serif" font-size="14.00">Basic</text>
</g>
<!-- u1 -->
<g id="node2" class="node">
<title>u1</title>
<ellipse fill="#bbffbb" stroke="black" stroke-width="0" cx="462.9" cy="-90" rx="64.99" ry="18"/>
<text text-anchor="middle" x="462.9" y="-86.3" font-family="Times,serif" font-size="14.00">Constraints</text>
</g>
<!-- u1&#45;&gt;u0 -->
<g id="edge1" class="edge">
<title>u1&#45;&gt;u0</title>
<path fill="none" stroke="black" d="M474.03,-72.05C479.59,-63.59 486.43,-53.19 492.57,-43.84"/>
<polygon fill="black" stroke="black" points="495.61,-45.59 498.18,-35.31 489.76,-41.74 495.61,-45.59"/>
</g>
<!-- u2 -->
<g id="node3" class="node">
<title>u2</title>
<ellipse fill="#bbffbb" stroke="black" stroke-width="0" cx="360.9" cy="-306" rx="79.09" ry="18"/>
<text text-anchor="middle" x="360.9" y="-302.3" font-family="Times,serif" font-size="14.00">ExistsStepSAT</text>
</g>
<!-- u2&#45;&gt;u0 -->
<g id="edge2" class="edge">
<title>u2&#45;&gt;u0</title>
<path fill="none" stroke="black" d="M360.82,-287.78C360.93,-239.86 363.56,-106.22 388.9,-72 407.1,-47.41 439.24,-34.03 465.68,-26.87"/>
<polygon fill="black" stroke="black" points="466.64,-30.24 475.5,-24.42 464.95,-23.45 466.64,-30.24"/>
</g>
<!-- u2&#45;&gt;u1 -->
<g id="edge3" class="edge">
<title>u2&#45;&gt;u1</title>
<path fill="none" stroke="black" d="M378.05,-288.08C387.29,-278.23 398.31,-265.18 405.9,-252 431.11,-208.17 448.03,-151.28 456.51,-118.19"/>
<polygon fill="black" stroke="black" points="459.95,-118.88 458.97,-108.33 453.15,-117.19 459.95,-118.88"/>
</g>
<!-- u3 -->
<g id="node4" class="node">
<title>u3</title>
<ellipse fill="#bbffbb" stroke="black" stroke-width="0" cx="249.9" cy="-162" rx="72.59" ry="18"/>
<text text-anchor="middle" x="249.9" y="-158.3" font-family="Times,serif" font-size="14.00">PlanningTask</text>
</g>
<!-- u2&#45;&gt;u3 -->
<g id="edge4" class="edge">
<title>u2&#45;&gt;u3</title>
<path fill="none" stroke="black" d="M359.54,-287.98C357.25,-268.77 351.14,-237.42 334.9,-216 324.45,-202.23 309.31,-191.16 294.69,-182.78"/>
<polygon fill="black" stroke="black" points="296.16,-179.59 285.7,-177.9 292.82,-185.75 296.16,-179.59"/>
</g>
<!-- u5 -->
<g id="node6" class="node">
<title>u5</title>
<ellipse fill="#bbffbb" stroke="black" stroke-width="0" cx="246.9" cy="-234" rx="78.79" ry="18"/>
<text text-anchor="middle" x="246.9" y="-230.3" font-family="Times,serif" font-size="14.00">SequentialSAT</text>
</g>
<!-- u2&#45;&gt;u5 -->
<g id="edge5" class="edge">
<title>u2&#45;&gt;u5</title>
<path fill="none" stroke="black" d="M334.74,-288.94C319.07,-279.32 298.94,-266.96 281.91,-256.5"/>
<polygon fill="black" stroke="black" points="283.68,-253.48 273.32,-251.23 280.01,-259.44 283.68,-253.48"/>
</g>
<!-- u3&#45;&gt;u0 -->
<g id="edge6" class="edge">
<title>u3&#45;&gt;u0</title>
<path fill="none" stroke="black" d="M262.71,-144.14C278.7,-124.19 307.89,-91.27 339.9,-72 379.1,-48.4 429.83,-34.33 465.44,-26.68"/>
<polygon fill="black" stroke="black" points="466.43,-30.05 475.52,-24.6 465.02,-23.2 466.43,-30.05"/>
</g>
<!-- u3&#45;&gt;u1 -->
<g id="edge7" class="edge">
<title>u3&#45;&gt;u1</title>
<path fill="none" stroke="black" d="M291.72,-147.25C326.53,-135.81 376.18,-119.5 413.05,-107.38"/>
<polygon fill="black" stroke="black" points="414.2,-110.69 422.61,-104.24 412.01,-104.04 414.2,-110.69"/>
</g>
<!-- u4 -->
<g id="node5" class="node">
<title>u4</title>
<ellipse fill="#bbffbb" stroke="black" stroke-width="0" cx="218.9" cy="-90" rx="29.8" ry="18"/>
<text text-anchor="middle" x="218.9" y="-86.3" font-family="Times,serif" font-size="14.00">SAS</text>
</g>
<!-- u3&#45;&gt;u4 -->
<g id="edge8" class="edge">
<title>u3&#45;&gt;u4</title>
<path fill="none" stroke="black" d="M242.39,-144.05C238.81,-135.97 234.45,-126.12 230.46,-117.11"/>
<polygon fill="black" stroke="black" points="233.58,-115.52 226.33,-107.79 227.18,-118.35 233.58,-115.52"/>
</g>
<!-- u5&#45;&gt;u0 -->
<g id="edge9" class="edge">
<title>u5&#45;&gt;u0</title>
<path fill="none" stroke="black" d="M209.95,-217.95C193.98,-209.37 176.91,-196.9 167.9,-180 155.89,-157.49 174.18,-77.68 179.9,-72 218.96,-33.15 381.98,-22.77 462.91,-20"/>
<polygon fill="black" stroke="black" points="463.41,-23.49 473.3,-19.68 463.19,-16.49 463.41,-23.49"/>
</g>
<!-- u5&#45;&gt;u1 -->
<g id="edge10" class="edge">
<title>u5&#45;&gt;u1</title>
<path fill="none" stroke="black" d="M273.1,-217.03C289.99,-206.64 312.37,-192.72 331.9,-180 366.26,-157.63 405.05,-131.11 431.44,-112.88"/>
<polygon fill="black" stroke="black" points="433.66,-115.6 439.89,-107.03 429.67,-109.84 433.66,-115.6"/>
</g>
<!-- u5&#45;&gt;u3 -->
<g id="edge11" class="edge">
<title>u5&#45;&gt;u3</title>
<path fill="none" stroke="black" d="M247.64,-215.7C247.97,-207.98 248.36,-198.71 248.73,-190.11"/>
<polygon fill="black" stroke="black" points="252.23,-190.25 249.16,-180.1 245.24,-189.95 252.23,-190.25"/>
</g>
<!-- u6 -->
<g id="node7" class="node">
<title>u6</title>
<ellipse fill="#bbffbb" stroke="black" stroke-width="0" cx="577.9" cy="-234" rx="81.79" ry="18"/>
<text text-anchor="middle" x="577.9" y="-230.3" font-family="Times,serif" font-size="14.00">LTLConstraints</text>
</g>
<!-- u6&#45;&gt;u0 -->
<g id="edge12" class="edge">
<title>u6&#45;&gt;u0</title>
<path fill="none" stroke="black" d="M574.88,-215.67C569.36,-185.71 556.39,-122.6 536.9,-72 533.32,-62.73 528.52,-53 523.9,-44.45"/>
<polygon fill="black" stroke="black" points="526.96,-42.74 519.03,-35.7 520.84,-46.14 526.96,-42.74"/>
</g>
<!-- u6&#45;&gt;u1 -->
<g id="edge13" class="edge">
<title>u6&#45;&gt;u1</title>
<path fill="none" stroke="black" d="M564.25,-216.15C544.11,-191.28 506.28,-144.57 482.97,-115.79"/>
<polygon fill="black" stroke="black" points="485.53,-113.39 476.52,-107.82 480.09,-117.8 485.53,-113.39"/>
</g>
<!-- u7 -->
<g id="node8" class="node">
<title>u7</title>
<ellipse fill="#bbffbb" stroke="black" stroke-width="0" cx="675.9" cy="-162" rx="91.78" ry="18"/>
<text text-anchor="middle" x="675.9" y="-158.3" font-family="Times,serif" font-size="14.00">PDDLConstraints</text>
</g>
<!-- u6&#45;&gt;u7 -->
<g id="edge14" class="edge">
<title>u6&#45;&gt;u7</title>
<path fill="none" stroke="black" d="M601.12,-216.41C614.06,-207.17 630.34,-195.54 644.41,-185.49"/>
<polygon fill="black" stroke="black" points="646.73,-188.13 652.84,-179.47 642.67,-182.43 646.73,-188.13"/>
</g>
<!-- u7&#45;&gt;u0 -->
<g id="edge15" class="edge">
<title>u7&#45;&gt;u0</title>
<path fill="none" stroke="black" d="M656.08,-144.15C625.82,-118.42 568.06,-69.31 534.6,-40.86"/>
<polygon fill="black" stroke="black" points="536.54,-37.91 526.65,-34.1 532,-43.24 536.54,-37.91"/>
</g>
<!-- u7&#45;&gt;u1 -->
<g id="edge16" class="edge">
<title>u7&#45;&gt;u1</title>
<path fill="none" stroke="black" d="M630.98,-146.24C596.4,-134.87 548.61,-119.17 512.83,-107.41"/>
<polygon fill="black" stroke="black" points="513.67,-104 503.07,-104.2 511.48,-110.65 513.67,-104"/>
</g>
<!-- u8 -->
<g id="node9" class="node">
<title>u8</title>
<ellipse fill="#bbffbb" stroke="black" stroke-width="0" cx="833.9" cy="-234" rx="117.78" ry="18"/>
<text text-anchor="middle" x="833.9" y="-230.3" font-family="Times,serif" font-size="14.00">ParsePDDLConstraints</text>
</g>
<!-- u8&#45;&gt;u0 -->
<g id="edge17" class="edge">
<title>u8&#45;&gt;u0</title>
<path fill="none" stroke="black" d="M826.54,-215.88C817.39,-196.28 800.09,-164.3 776.9,-144 708.19,-83.88 605.62,-46.97 549.39,-30.03"/>
<polygon fill="black" stroke="black" points="550.36,-26.67 539.78,-27.2 548.38,-33.38 550.36,-26.67"/>
</g>
<!-- u8&#45;&gt;u7 -->
<g id="edge18" class="edge">
<title>u8&#45;&gt;u7</title>
<path fill="none" stroke="black" d="M797.25,-216.76C774.39,-206.64 744.82,-193.54 720.59,-182.8"/>
<polygon fill="black" stroke="black" points="721.82,-179.52 711.25,-178.67 718.98,-185.92 721.82,-179.52"/>
</g>
<!-- u9 -->
<g id="node10" class="node">
<title>u9</title>
<ellipse fill="#bbffbb" stroke="black" stroke-width="0" cx="55.9" cy="-306" rx="55.79" ry="18"/>
<text text-anchor="middle" x="55.9" y="-302.3" font-family="Times,serif" font-size="14.00">ParseSAS</text>
</g>
<!-- u9&#45;&gt;u4 -->
<g id="edge19" class="edge">
<title>u9&#45;&gt;u4</title>
<path fill="none" stroke="black" d="M66.51,-287.91C85.49,-257.8 127.08,-193.76 167.9,-144 176.63,-133.36 187.05,-122.28 196.19,-113.02"/>
<polygon fill="black" stroke="black" points="198.9,-115.26 203.5,-105.72 193.95,-110.31 198.9,-115.26"/>
</g>
<!-- u10 -->
<g id="node11" class="node">
<title>u10</title>
<ellipse fill="#bbffbb" stroke="black" stroke-width="0" cx="467.9" cy="-378" rx="40.09" ry="18"/>
<text text-anchor="middle" x="467.9" y="-374.3" font-family="Times,serif" font-size="14.00">Solver</text>
</g>
<!-- u10&#45;&gt;u0 -->
<g id="edge20" class="edge">
<title>u10&#45;&gt;u0</title>
<path fill="none" stroke="black" d="M507.64,-374.55C627.94,-366.07 979.9,-332.89 979.9,-235 979.9,-235 979.9,-235 979.9,-161 979.9,-72.6 671.94,-34.32 554.05,-22.9"/>
<polygon fill="black" stroke="black" points="554.2,-19.4 543.91,-21.94 553.54,-26.37 554.2,-19.4"/>
</g>
<!-- u10&#45;&gt;u1 -->
<g id="edge21" class="edge">
<title>u10&#45;&gt;u1</title>
<path fill="none" stroke="black" d="M467.6,-359.97C466.76,-312.29 464.4,-177.18 463.38,-118.63"/>
<polygon fill="black" stroke="black" points="466.87,-118.24 463.2,-108.31 459.87,-118.37 466.87,-118.24"/>
</g>
<!-- u10&#45;&gt;u2 -->
<g id="edge22" class="edge">
<title>u10&#45;&gt;u2</title>
<path fill="none" stroke="black" d="M445.98,-362.67C431.09,-352.92 411.12,-339.85 394.26,-328.83"/>
<polygon fill="black" stroke="black" points="396.06,-325.82 385.77,-323.28 392.23,-331.68 396.06,-325.82"/>
</g>
<!-- u10&#45;&gt;u3 -->
<g id="edge23" class="edge">
<title>u10&#45;&gt;u3</title>
<path fill="none" stroke="black" d="M427.56,-376.16C355.35,-372.11 207.04,-351.49 158.9,-252 151.93,-237.6 150.92,-229.87 158.9,-216 167.73,-200.63 182.93,-189.3 198.4,-181.15"/>
<polygon fill="black" stroke="black" points="200.04,-184.25 207.5,-176.72 196.98,-177.95 200.04,-184.25"/>
</g>
<!-- u10&#45;&gt;u5 -->
<g id="edge24" class="edge">
<title>u10&#45;&gt;u5</title>
<path fill="none" stroke="black" d="M427.55,-377.06C383.69,-374.9 314.34,-364.67 272.9,-324 256.51,-307.92 250.31,-282.14 248.04,-262.46"/>
<polygon fill="black" stroke="black" points="251.5,-261.9 247.14,-252.25 244.53,-262.52 251.5,-261.9"/>
</g>
<!-- u10&#45;&gt;u6 -->
<g id="edge25" class="edge">
<title>u10&#45;&gt;u6</title>
<path fill="none" stroke="black" d="M480.51,-360.71C499.62,-336.05 536.04,-289.03 558.52,-260.01"/>
<polygon fill="black" stroke="black" points="561.39,-262.03 564.74,-251.98 555.85,-257.74 561.39,-262.03"/>
</g>
<!-- u10&#45;&gt;u7 -->
<g id="edge26" class="edge">
<title>u10&#45;&gt;u7</title>
<path fill="none" stroke="black" d="M500.36,-367.2C546.7,-351.32 630.46,-315.2 668.9,-252 680.12,-233.54 681.2,-208.79 679.85,-190.08"/>
<polygon fill="black" stroke="black" points="683.33,-189.72 678.87,-180.12 676.36,-190.41 683.33,-189.72"/>
</g>
<!-- u10&#45;&gt;u8 -->
<g id="edge27" class="edge">
<title>u10&#45;&gt;u8</title>
<path fill="none" stroke="black" d="M506.53,-372.7C554.07,-366.41 636.51,-352.26 701.9,-324 740.64,-307.25 780.14,-278.81 805.7,-258.59"/>
<polygon fill="black" stroke="black" points="808.21,-261.06 813.82,-252.07 803.83,-255.6 808.21,-261.06"/>
</g>
<!-- u10&#45;&gt;u9 -->
<g id="edge28" class="edge">
<title>u10&#45;&gt;u9</title>
<path fill="none" stroke="black" d="M429.75,-372.16C366.38,-363.88 235.51,-345.76 125.9,-324 120.16,-322.86 114.18,-321.57 108.24,-320.22"/>
<polygon fill="black" stroke="black" points="108.87,-316.78 98.34,-317.92 107.28,-323.59 108.87,-316.78"/>
</g>
<!-- u11 -->
<g id="node12" class="node">
<title>u11</title>
<ellipse fill="#ffffbb" stroke="black" stroke-width="0" cx="467.9" cy="-450" rx="34.39" ry="18"/>
<text text-anchor="middle" x="467.9" y="-446.3" font-family="Times,serif" font-size="14.00">Main</text>
</g>
<!-- u11&#45;&gt;u10 -->
<g id="edge29" class="edge">
<title>u11&#45;&gt;u10</title>
<path fill="none" stroke="black" d="M467.9,-431.7C467.9,-423.98 467.9,-414.71 467.9,-406.11"/>
<polygon fill="black" stroke="black" points="471.4,-406.1 467.9,-396.1 464.4,-406.1 471.4,-406.1"/>
</g>
</g>
</svg>
